<svg width="55" height="15" viewBox="0 0 55 15" fill="none" xmlns="http://www.w3.org/2000/svg">
<path d="M17.468 11L18.468 6.26H19.718L19.668 6.72C19.9347 6.54667 20.2113 6.41 20.498 6.31C20.7913 6.21 21.0947 6.16 21.408 6.16C21.7413 6.16 21.988 6.21 22.148 6.31C22.3147 6.41 22.428 6.55333 22.488 6.74C22.7413 6.56667 23.0213 6.42667 23.328 6.32C23.6347 6.21333 23.9813 6.16 24.368 6.16C24.8747 6.16 25.238 6.30333 25.458 6.59C25.678 6.87 25.728 7.3 25.608 7.88L24.948 11H23.618L24.248 8.03C24.3147 7.71667 24.3013 7.49333 24.208 7.36C24.1213 7.22 23.9147 7.15 23.588 7.15C23.188 7.15 22.8247 7.29333 22.498 7.58C22.5047 7.69333 22.4913 7.83 22.458 7.99L21.828 11H20.568L21.198 8.03C21.258 7.73667 21.2513 7.51667 21.178 7.37C21.1113 7.22333 20.9347 7.15 20.648 7.15C20.448 7.15 20.248 7.20333 20.048 7.31C19.8547 7.41 19.6713 7.52667 19.498 7.66L18.798 11H17.468ZM27.8555 11.1C27.4488 11.1 27.0955 11.0267 26.7955 10.88C26.5022 10.7333 26.2922 10.4967 26.1655 10.17C26.0455 9.83667 26.0422 9.4 26.1555 8.86C26.2755 8.29333 26.4755 7.81 26.7555 7.41C27.0355 7.01 27.3722 6.70333 27.7655 6.49C28.1588 6.27 28.5788 6.16 29.0255 6.16C29.2922 6.16 29.5222 6.19 29.7155 6.25C29.9088 6.31 30.0888 6.41667 30.2555 6.57L30.3155 6.26H31.6655L30.6655 11H29.5055L29.5155 10.56C29.2688 10.74 29.0122 10.8767 28.7455 10.97C28.4855 11.0567 28.1888 11.1 27.8555 11.1ZM28.4355 10.11C28.8555 10.11 29.2422 9.96667 29.5955 9.68L30.0355 7.57C29.8288 7.29 29.5388 7.15 29.1655 7.15C28.3188 7.15 27.7722 7.72 27.5255 8.86C27.4188 9.34667 27.4355 9.67667 27.5755 9.85C27.7222 10.0233 28.0088 10.11 28.4355 10.11ZM34.2537 11.1C33.7404 11.1 33.3004 11.01 32.9337 10.83C32.5737 10.65 32.317 10.3767 32.1637 10.01C32.017 9.63667 32.0004 9.17333 32.1137 8.62C32.2204 8.11333 32.387 7.67667 32.6137 7.31C32.8404 6.94333 33.1504 6.66 33.5437 6.46C33.9437 6.26 34.4437 6.16 35.0437 6.16C35.777 6.16 36.297 6.35333 36.6037 6.74C36.917 7.12 37.007 7.62 36.8737 8.24L36.6937 9.1H33.2637C33.257 9.48 33.357 9.74 33.5637 9.88C33.777 10.02 34.1737 10.09 34.7537 10.09C35.007 10.09 35.2704 10.0667 35.5437 10.02C35.817 9.97333 36.0537 9.91333 36.2537 9.84L36.0537 10.8C35.8137 10.9 35.5404 10.9733 35.2337 11.02C34.927 11.0733 34.6004 11.1 34.2537 11.1ZM33.4437 8.27H35.6937L35.7437 8.01C35.8037 7.73667 35.7704 7.52333 35.6437 7.37C35.517 7.21 35.2637 7.13 34.8837 7.13C34.437 7.13 34.107 7.22 33.8937 7.4C33.6804 7.58 33.5304 7.87 33.4437 8.27ZM38.5234 11.1C37.6434 11.1 37.3001 10.6533 37.4934 9.76L38.6634 4.26H40.0134L38.8634 9.65C38.8301 9.81667 38.8334 9.93333 38.8734 10C38.9201 10.06 39.0167 10.09 39.1634 10.09C39.3367 10.09 39.4967 10.0667 39.6434 10.02L39.4534 10.95C39.1734 11.05 38.8634 11.1 38.5234 11.1ZM41.3904 5.39L41.6104 4.33H43.0804L42.8604 5.39H41.3904ZM40.3104 11L41.1004 7.26H40.3904L40.7204 6.26H42.6604L41.6604 11H40.3104ZM42.8196 11L43.8196 6.26H45.0696L45.0296 6.71C45.2562 6.56333 45.5262 6.43667 45.8396 6.33C46.1596 6.21667 46.4829 6.16 46.8096 6.16C48.0096 6.16 48.4829 6.76 48.2296 7.96L47.5896 11H46.2396L46.8696 8.03C46.9362 7.71 46.9229 7.48333 46.8296 7.35C46.7362 7.21667 46.5229 7.15 46.1896 7.15C45.9429 7.15 45.7062 7.19667 45.4796 7.29C45.2529 7.38333 45.0529 7.5 44.8796 7.64L44.1696 11H42.8196ZM48.6885 11L50.1185 4.26H51.4685L50.6785 7.97L52.8085 6.26H54.3485L52.0285 8.2L53.4585 11H52.0285L51.0285 8.91L50.3685 9.44L50.0385 11H48.6885Z" fill="#FF3E3E"/>
<g style="mix-blend-mode:color-dodge">
<path d="M6.10082 7.47629C6.00968 7.31851 5.88761 7.18085 5.74194 7.07161L1.1348 3.61271C1.0798 3.57139 1.03873 3.51421 1.0171 3.44884C0.99548 3.38347 0.994333 3.31304 1.01382 3.247C1.03331 3.18095 1.0725 3.12246 1.12612 3.07938C1.17976 3.03629 1.24526 3.01067 1.31385 3.00594L14.815 2.08726C14.8782 2.08187 14.9416 2.09464 14.998 2.12408C15.0543 2.15351 15.101 2.19839 15.1327 2.25347C15.1645 2.30854 15.1799 2.37153 15.1772 2.43506C15.1745 2.4986 15.1538 2.56006 15.1176 2.61224L7.57272 13.8652C7.53436 13.9223 7.47945 13.9663 7.41539 13.9913C7.35132 14.0163 7.28116 14.021 7.21432 14.005C7.14747 13.9888 7.08715 13.9526 7.04145 13.9011C6.99575 13.8497 6.96685 13.7855 6.95863 13.7171L6.27216 7.98964C6.25023 7.8087 6.19194 7.63407 6.10082 7.47629ZM6.10082 7.47629L15.1299 2.25565L6.10082 7.47629Z" fill="#828282" fill-opacity="0.2"/>
<path d="M6.10082 7.47629C6.00968 7.31851 5.88761 7.18085 5.74194 7.07161L1.1348 3.61271C1.0798 3.57139 1.03873 3.51421 1.0171 3.44884C0.99548 3.38347 0.994333 3.31304 1.01382 3.247C1.03331 3.18095 1.0725 3.12246 1.12612 3.07938C1.17976 3.03629 1.24526 3.01067 1.31385 3.00594L14.815 2.08726C14.8782 2.08187 14.9416 2.09464 14.998 2.12408C15.0543 2.15351 15.101 2.19839 15.1327 2.25347C15.1645 2.30854 15.1799 2.37153 15.1772 2.43506C15.1745 2.4986 15.1538 2.56006 15.1176 2.61224L7.57272 13.8652C7.53436 13.9223 7.47945 13.9663 7.41539 13.9913C7.35132 14.0163 7.28116 14.021 7.21432 14.005C7.14747 13.9888 7.08715 13.9526 7.04145 13.9011C6.99575 13.8497 6.96684 13.7855 6.95863 13.7171L6.27216 7.98964C6.25023 7.8087 6.19194 7.63407 6.10082 7.47629ZM6.10082 7.47629L15.1299 2.25565" stroke="#FF6969" stroke-linecap="round" stroke-linejoin="round"/>
</g>
</svg>
