<svg width="10" height="11" viewBox="0 0 10 11" fill="none" xmlns="http://www.w3.org/2000/svg">
<g style="mix-blend-mode:color-dodge">
<path d="M5.09759 1H4.90241C4.66712 1 4.44147 1.09482 4.2751 1.2636C4.10872 1.43239 4.01526 1.66131 4.01526 1.9V1.981C4.0151 2.13883 3.97403 2.29384 3.89617 2.43048C3.81832 2.56712 3.70641 2.68059 3.57168 2.7595L3.38094 2.872C3.24608 2.95099 3.09309 2.99258 2.93736 2.99258C2.78163 2.99258 2.62865 2.95099 2.49378 2.872L2.42725 2.836C2.22367 2.71687 1.98182 2.68455 1.75478 2.74614C1.52775 2.80773 1.33407 2.95819 1.21628 3.1645L1.11869 3.3355C1.00126 3.54202 0.969404 3.78737 1.03011 4.0177C1.09082 4.24802 1.23914 4.4445 1.4425 4.564L1.50904 4.609C1.64312 4.68753 1.75461 4.80029 1.83243 4.93607C1.91025 5.07186 1.95168 5.22594 1.95262 5.383V5.6125C1.95324 5.77109 1.91254 5.92703 1.83465 6.06453C1.75675 6.20203 1.64443 6.31621 1.50904 6.3955L1.4425 6.436C1.23914 6.5555 1.09082 6.75197 1.03011 6.9823C0.969404 7.21263 1.00126 7.45798 1.11869 7.6645L1.21628 7.8355C1.33407 8.04181 1.52775 8.19227 1.75478 8.25386C1.98182 8.31545 2.22367 8.28313 2.42725 8.164L2.49378 8.128C2.62865 8.04901 2.78163 8.00742 2.93736 8.00742C3.09309 8.00742 3.24608 8.04901 3.38094 8.128L3.57168 8.2405C3.70641 8.31941 3.81832 8.43288 3.89617 8.56952C3.97403 8.70616 4.0151 8.86117 4.01526 9.019V9.1C4.01526 9.33869 4.10872 9.56761 4.2751 9.7364C4.44147 9.90518 4.66712 10 4.90241 10H5.09759C5.33288 10 5.55853 9.90518 5.7249 9.7364C5.89127 9.56761 5.98474 9.33869 5.98474 9.1V9.019C5.9849 8.86117 6.02597 8.70616 6.10383 8.56952C6.18168 8.43288 6.29359 8.31941 6.42832 8.2405L6.61906 8.128C6.75392 8.04901 6.90691 8.00742 7.06264 8.00742C7.21837 8.00742 7.37135 8.04901 7.50622 8.128L7.57275 8.164C7.77633 8.28313 8.01818 8.31545 8.24522 8.25386C8.47225 8.19227 8.66593 8.04181 8.78372 7.8355L8.88131 7.66C8.99874 7.45348 9.0306 7.20813 8.96989 6.9778C8.90918 6.74747 8.76086 6.551 8.5575 6.4315L8.49096 6.3955C8.35558 6.31621 8.24325 6.20203 8.16535 6.06453C8.08746 5.92703 8.04676 5.77109 8.04738 5.6125V5.3875C8.04676 5.22891 8.08746 5.07297 8.16535 4.93547C8.24325 4.79797 8.35558 4.68379 8.49096 4.6045L8.5575 4.564C8.76086 4.4445 8.90918 4.24802 8.96989 4.0177C9.0306 3.78737 8.99874 3.54202 8.88131 3.3355L8.78372 3.1645C8.66593 2.95819 8.47225 2.80773 8.24522 2.74614C8.01818 2.68455 7.77633 2.71687 7.57275 2.836L7.50622 2.872C7.37135 2.95099 7.21837 2.99258 7.06264 2.99258C6.90691 2.99258 6.75392 2.95099 6.61906 2.872L6.42832 2.7595C6.29359 2.68059 6.18168 2.56712 6.10383 2.43048C6.02597 2.29384 5.9849 2.13883 5.98474 1.981V1.9C5.98474 1.66131 5.89127 1.43239 5.7249 1.2636C5.55853 1.09482 5.33288 1 5.09759 1Z" stroke="#FF5E5E" stroke-width="0.7" stroke-linecap="round" stroke-linejoin="round"/>
<path d="M5 6.85C5.73494 6.85 6.33073 6.24558 6.33073 5.5C6.33073 4.75442 5.73494 4.15 5 4.15C4.26506 4.15 3.66927 4.75442 3.66927 5.5C3.66927 6.24558 4.26506 6.85 5 6.85Z" stroke="#FF5E5E" stroke-width="0.7" stroke-linecap="round" stroke-linejoin="round"/>
</g>
</svg>
